<?xml version="1.0" encoding="UTF-8"?>
<svg width="134px" height="106px" viewBox="0 0 134 106" version="1.1" xmlns="http://www.w3.org/2000/svg" xmlns:xlink="http://www.w3.org/1999/xlink">
    <g id="Page-1" stroke="none" stroke-width="1" fill="none" fill-rule="evenodd">
        <g id="Login-Copy-2" transform="translate(-445.000000, -162.000000)" fill="#25BDD6" fill-rule="nonzero">
            <g id="pinguin" transform="translate(445.000000, 162.000000)">
                <path d="M47.6968803,54.672096 C43.1508098,50.0467392 39.9944975,44.0584212 38.9018995,37.378698 L30,32.2547282 L38.8694552,27.1495046 C41.284342,11.767487 54.6336887,0 70.7396932,0 C88.5563962,0 103,14.3996784 103,32.1628349 C103,48.3658272 90.9819748,61.770485 75.3484402,64 L75.3484402,27.5683542 C75.3484402,19.9549953 69.1582189,13.7839933 61.5227524,13.7839933 C53.8852582,13.7839933 47.6968803,19.9555466 47.6968803,27.5683542 L47.6968803,54.672096 Z M61.5227524,32.1628349 C64.0679694,32.1628349 66.131315,30.1057117 66.131315,27.5681705 C66.131315,25.0306292 64.0679694,22.973506 61.5227524,22.973506 C58.9775355,22.973506 56.9141898,25.0306292 56.9141898,27.5681705 C56.9141898,30.1057117 58.9775355,32.1628349 61.5227524,32.1628349 Z" id="Shape"></path>
                <path d="M0,105.596439 L4.85609244,105.596439 L4.85609244,95.8160237 L5.09068627,95.8160237 C5.93522409,97.8813056 7.38970588,99.3531157 10.1109944,99.3531157 C13.8410364,99.3531157 16.4684874,96.5994065 16.4684874,90.379822 C16.4684874,84.1602374 13.8410364,81.4065282 10.1109944,81.4065282 C7.38970588,81.4065282 5.93522409,82.8545994 5.09068627,84.9198813 L4.85609244,84.9198813 L4.85609244,81.810089 L0,81.810089 L0,105.596439 Z M7.99964986,95.5311573 C6.28711485,95.5311573 4.85609244,94.7002967 4.85609244,92.8961424 L4.85609244,87.8397626 C4.85609244,86.0593472 6.28711485,85.2284866 7.99964986,85.2284866 C10.1813725,85.2284866 11.4247199,86.652819 11.4247199,89.0504451 L11.4247199,91.7091988 C11.4247199,94.1068249 10.1813725,95.5311573 7.99964986,95.5311573 Z M28.6673669,79.6023739 C30.8256303,79.6023739 31.5763305,78.5816024 31.5763305,77.2759644 L31.5763305,76.3264095 C31.5763305,74.9970326 30.8256303,74 28.6673669,74 C26.4856443,74 25.734944,74.9970326 25.734944,76.3264095 L25.734944,77.2759644 C25.734944,78.5816024 26.4856443,79.6023739 28.6673669,79.6023739 Z M20.8553922,98.9495549 L36.0805322,98.9495549 L36.0805322,95.1275964 L31.0836835,95.1275964 L31.0836835,81.810089 L20.8553922,81.810089 L20.8553922,85.6320475 L26.227591,85.6320475 L26.227591,95.1275964 L20.8553922,95.1275964 L20.8553922,98.9495549 Z M44.4555322,98.9495549 L44.4555322,87.6735905 C44.4555322,86.0118694 45.9334734,85.1810089 47.4583333,85.1810089 C49.3585434,85.1810089 50.2969188,86.3442136 50.2969188,88.504451 L50.2969188,98.9495549 L55.1764706,98.9495549 L55.1764706,87.8397626 C55.1764706,83.6854599 52.9009104,81.4065282 49.640056,81.4065282 C46.9187675,81.4065282 45.4173669,82.9970326 44.6666667,84.9198813 L44.4555322,84.9198813 L44.4555322,81.810089 L39.5994398,81.810089 L39.5994398,98.9495549 L44.4555322,98.9495549 Z M76.3133754,100.682493 C76.3133754,97.7863501 74.4366246,95.7210682 69.5805322,95.7210682 L65.7097339,95.7210682 C64.372549,95.7210682 63.2230392,95.6498516 63.2230392,94.5578635 C63.2230392,93.9643917 63.57493,93.5608309 64.067577,93.2997033 C64.8886555,93.537092 65.8504902,93.6320475 66.8357843,93.6320475 C71.2930672,93.6320475 74.2489496,91.4718101 74.2489496,87.5074184 C74.2489496,85.0860534 73.1698179,83.3531157 71.3165266,82.4035608 L71.3165266,82.0949555 L75.3984594,82.0949555 L75.3984594,78.5103858 L72.4191176,78.5103858 C70.8004202,78.5103858 69.8151261,79.5074184 69.8151261,80.8367953 L69.8151261,81.7626113 C68.9236695,81.5252226 67.914916,81.4065282 66.8357843,81.4065282 C62.4019608,81.4065282 59.4695378,83.5192878 59.4695378,87.5074184 C59.4695378,90.0474777 60.642507,91.8278932 62.660014,92.8011869 L62.660014,92.9910979 C60.8067227,93.4421365 59.6102941,94.1305638 59.6102941,95.7922849 C59.6102941,97.2878338 60.5252101,98.0474777 61.9562325,98.4747774 L61.9562325,98.6884273 C59.9387255,99.2106825 58.7188375,100.11276 58.7188375,102.035608 C58.7188375,104.362018 60.4782913,106 66.9296218,106 C73.357493,106 76.3133754,104.290801 76.3133754,100.682493 Z M71.7153361,101.038576 C71.7153361,102.20178 70.730042,102.84273 68.5248599,102.84273 L65.6862745,102.84273 C63.5514706,102.84273 62.7303922,102.083086 62.7303922,101.014837 C62.7303922,100.445104 62.9415266,99.9703264 63.3872549,99.6142433 L69.1817227,99.6142433 C71.1523109,99.6142433 71.7153361,100.136499 71.7153361,101.038576 Z M66.8357843,90.4985163 C64.9121148,90.4985163 64.067577,89.4065282 64.067577,87.9109792 L64.067577,87.1275964 C64.067577,85.6320475 64.9121148,84.5163205 66.8357843,84.5163205 C68.7594538,84.5163205 69.6509104,85.6320475 69.6509104,87.1275964 L69.6509104,87.9109792 C69.6509104,89.4065282 68.7594538,90.4985163 66.8357843,90.4985163 Z M89.5913866,98.9495549 L94.447479,98.9495549 L94.447479,81.810089 L89.5913866,81.810089 L89.5913866,93.0623145 C89.5913866,94.7240356 88.1134454,95.5548961 86.5885854,95.5548961 C84.6883754,95.5548961 83.75,94.3916914 83.75,92.231454 L83.75,81.810089 L78.8704482,81.810089 L78.8704482,92.8961424 C78.8704482,97.0504451 81.1460084,99.3531157 84.4068627,99.3531157 C87.1281513,99.3531157 88.6295518,97.7626113 89.3802521,95.8160237 L89.5913866,95.8160237 L89.5913866,98.9495549 Z M107.490896,79.6023739 C109.64916,79.6023739 110.39986,78.5816024 110.39986,77.2759644 L110.39986,76.3264095 C110.39986,74.9970326 109.64916,74 107.490896,74 C105.309174,74 104.558473,74.9970326 104.558473,76.3264095 L104.558473,77.2759644 C104.558473,78.5816024 105.309174,79.6023739 107.490896,79.6023739 Z M99.6789216,98.9495549 L114.904062,98.9495549 L114.904062,95.1275964 L109.907213,95.1275964 L109.907213,81.810089 L99.6789216,81.810089 L99.6789216,85.6320475 L105.05112,85.6320475 L105.05112,95.1275964 L99.6789216,95.1275964 L99.6789216,98.9495549 Z M123.279062,98.9495549 L123.279062,87.6735905 C123.279062,86.0118694 124.757003,85.1810089 126.281863,85.1810089 C128.182073,85.1810089 129.120448,86.3442136 129.120448,88.504451 L129.120448,98.9495549 L134,98.9495549 L134,87.8397626 C134,83.6854599 131.72444,81.4065282 128.463585,81.4065282 C125.742297,81.4065282 124.240896,82.9970326 123.490196,84.9198813 L123.279062,84.9198813 L123.279062,81.810089 L118.422969,81.810089 L118.422969,98.9495549 L123.279062,98.9495549 Z" id="Shape"></path>
            </g>
        </g>
    </g>
</svg>